<svg width="40" height="40" viewBox="0 0 40 40" fill="none" xmlns="http://www.w3.org/2000/svg">
<path d="M4.16666 20C4.16666 12.5361 4.16666 8.80411 6.48539 6.48536C8.80414 4.16663 12.5361 4.16663 20 4.16663C27.4638 4.16663 31.1958 4.16663 33.5147 6.48536C35.8333 8.80411 35.8333 12.5361 35.8333 20C35.8333 27.4638 35.8333 31.1958 33.5147 33.5146C31.1958 35.8333 27.4638 35.8333 20 35.8333C12.5361 35.8333 8.80414 35.8333 6.48539 33.5146C4.16666 31.1958 4.16666 27.4638 4.16666 20Z" stroke="black" stroke-width="4" stroke-linejoin="round"/>
<path d="M28.2108 13.3773H23.3027C21.563 13.3773 20.149 14.7808 20.1362 16.5205L19.994 35.7114M16.8033 23.3362H24.8078" stroke="black" stroke-width="4" stroke-linecap="round" stroke-linejoin="round"/>
</svg>
