<svg width="40" height="40" viewBox="0 0 40 40" fill="none" xmlns="http://www.w3.org/2000/svg">
<path d="M4.16666 20C4.16666 12.5361 4.16666 8.80411 6.48539 6.48536C8.80414 4.16663 12.5361 4.16663 20 4.16663C27.4638 4.16663 31.1958 4.16663 33.5147 6.48536C35.8333 8.80411 35.8333 12.5361 35.8333 20C35.8333 27.4638 35.8333 31.1958 33.5147 33.5146C31.1958 35.8333 27.4638 35.8333 20 35.8333C12.5361 35.8333 8.80414 35.8333 6.48539 33.5146C4.16666 31.1958 4.16666 27.4638 4.16666 20Z" stroke="black" stroke-width="4" stroke-linejoin="round"/>
<path d="M27.5 20C27.5 24.1422 24.1422 27.5 20 27.5C15.8579 27.5 12.5 24.1422 12.5 20C12.5 15.8579 15.8579 12.5 20 12.5C24.1422 12.5 27.5 15.8579 27.5 20Z" stroke="black" stroke-width="4"/>
<path d="M29.1767 10.8334H29.1647" stroke="black" stroke-width="4" stroke-linecap="round" stroke-linejoin="round"/>
</svg>
